<svg width="130" height="131" viewBox="0 0 130 131" fill="none" xmlns="http://www.w3.org/2000/svg">
<path d="M123.753 123.617H27.0269C16.6276 123.617 8.19751 115.187 8.19751 104.788V101.176C8.19751 90.7772 16.6276 82.347 27.0269 82.347H123.753V123.617Z" fill="#FFEBB7"/>
<path d="M22.6419 86.474H12.3245V119.49H22.6419V86.474Z" fill="#5C546A"/>
<path d="M113.951 76.1565H4.07043V47.2676H113.951C117.085 47.2676 119.626 49.8083 119.626 52.9422V70.4819C119.626 73.6159 117.085 76.1565 113.951 76.1565Z" fill="#FFEBB7"/>
<path d="M123.753 10.1248H18.5149V41.0772H123.753V10.1248Z" fill="#FFEBB7"/>
<path d="M123.809 127.744H28.8889C15.2352 127.744 4.12695 116.637 4.12695 102.982C4.12695 89.3273 15.2352 78.22 28.8889 78.22H123.809C126.089 78.22 127.936 80.0679 127.936 82.347C127.936 84.6261 126.089 86.474 123.809 86.474H28.8889C19.7865 86.474 12.3809 93.8796 12.3809 102.982C12.3809 112.084 19.7865 119.49 28.8889 119.49H123.809C126.089 119.49 127.936 121.338 127.936 123.617C127.936 125.896 126.089 127.744 123.809 127.744Z" fill="#00C37A"/>
<path d="M111.429 78.22H2.06349C0.922897 78.22 0 77.2971 0 76.1565C0 75.0159 0.922897 74.093 2.06349 74.093H111.429C114.842 74.093 117.619 71.3161 117.619 67.9026V55.5216C117.619 52.1081 114.842 49.3311 111.429 49.3311H2.06349C0.922897 49.3311 0 48.4082 0 47.2677C0 46.1271 0.922897 45.2042 2.06349 45.2042H111.429C117.117 45.2042 121.746 49.8328 121.746 55.5216V67.9026C121.746 73.5914 117.117 78.22 111.429 78.22Z" fill="#009BCA"/>
<path d="M123.753 20.4423H28.8324C27.6928 20.4423 26.7689 19.5184 26.7689 18.3788C26.7689 17.2392 27.6928 16.3153 28.8324 16.3153H123.753V20.4423Z" fill="#E6BE94"/>
<path d="M123.753 28.6963H28.8324C27.6928 28.6963 26.7689 27.7723 26.7689 26.6328C26.7689 25.4932 27.6928 24.5693 28.8324 24.5693H123.753V28.6963Z" fill="#E6BE94"/>
<path d="M123.753 36.9502H28.8324C27.6928 36.9502 26.7689 36.0263 26.7689 34.8867C26.7689 33.7472 27.6928 32.8232 28.8324 32.8232H123.753V36.9502Z" fill="#E6BE94"/>
<path d="M4.07043 53.4581H111.372C112.512 53.4581 113.436 54.3821 113.436 55.5216C113.436 56.6612 112.512 57.5851 111.372 57.5851H4.07043C4.07043 57.5851 4.07043 53.4581 4.07043 53.4581Z" fill="#E6BE94"/>
<path d="M4.07043 61.7121H111.372C112.512 61.7121 113.436 62.636 113.436 63.7756C113.436 64.9152 112.512 65.8391 111.372 65.8391H4.07043C4.07043 65.8391 4.07043 61.7121 4.07043 61.7121Z" fill="#E6BE94"/>
<path d="M4.07043 69.9661H111.372C112.512 69.9661 113.436 70.89 113.436 72.0296C113.436 73.1691 112.512 74.093 111.372 74.093H4.07043C4.07043 74.093 4.07043 69.9661 4.07043 69.9661Z" fill="#E6BE94"/>
<path d="M125.873 45.2042H26.8254C19.9981 45.2042 14.4445 39.6505 14.4445 32.8232V16.3153C14.4445 9.48796 19.9981 3.93433 26.8254 3.93433H125.873C128.152 3.93433 130 5.78218 130 8.06131C130 10.3404 128.152 12.1883 125.873 12.1883H26.8254C24.5494 12.1883 22.6984 14.0392 22.6984 16.3153V32.8232C22.6984 35.0982 24.5494 36.9502 26.8254 36.9502H125.873C128.152 36.9502 130 38.7981 130 41.0772C130 43.3563 128.152 45.2042 125.873 45.2042Z" fill="#FF4F19"/>
<path d="M28.8324 115.363C27.6918 115.363 26.7689 116.286 26.7689 117.426C26.7689 118.567 27.6918 119.49 28.8324 119.49H123.753V115.363H28.8324Z" fill="#E6BE94"/>
<path d="M28.8324 107.109C27.6918 107.109 26.7689 108.032 26.7689 109.172C26.7689 110.313 27.6918 111.236 28.8324 111.236H123.753V107.109H28.8324Z" fill="#E6BE94"/>
<path d="M28.8324 98.855C27.6918 98.855 26.7689 99.7779 26.7689 100.918C26.7689 102.059 27.6918 102.982 28.8324 102.982H123.753V98.855H28.8324Z" fill="#E6BE94"/>
<path d="M28.8324 90.601C27.6918 90.601 26.7689 91.5239 26.7689 92.6645C26.7689 93.8051 27.6918 94.728 28.8324 94.728H123.753V90.601H28.8324Z" fill="#E6BE94"/>
</svg>
