<svg width="130" height="131" viewBox="0 0 130 131" fill="none" xmlns="http://www.w3.org/2000/svg">
<g clip-path="url(#clip0)">
<path d="M104.224 9.80463V18.7701H88.5345V9.80463H34.7414V18.7701H19.0518V9.80463H1.12073V34.4598H122.155V9.80463H104.224Z" fill="#F05565"/>
<path d="M19.0518 34.4598H1.12073V130.839H122.155V34.4598H104.224H88.5345H34.7414H19.0518Z" fill="#EFEBDE"/>
<path d="M84.0518 50.1494H79.569H63.8793H59.3966H43.7069H39.2242H19.0518V70.3218V74.8046V90.4942V94.977V115.149H39.2242H43.7069H59.3966H63.8793H79.569H84.0518H104.224V94.977V90.4942V74.8046V70.3218V50.1494H84.0518ZM63.8793 54.6322H79.569V70.3218H63.8793V54.6322ZM79.569 90.4942H63.8793V74.8046H79.569V90.4942ZM43.7069 74.8046H59.3966V90.4942H43.7069V74.8046ZM43.7069 54.6322H59.3966V70.3218H43.7069V54.6322ZM23.5345 54.6322H39.2242V70.3218H23.5345V54.6322ZM23.5345 74.8046H39.2242V90.4942H23.5345V74.8046ZM39.2242 110.667H23.5345V94.977H39.2242V110.667ZM59.3966 110.667H43.7069V94.977H59.3966V110.667ZM79.569 110.667H63.8793V94.977H79.569V110.667ZM99.7414 110.667H84.0518V94.977H99.7414V110.667ZM99.7414 90.4942H84.0518V74.8046H99.7414V90.4942ZM84.0518 70.3218V54.6322H99.7414V70.3218H84.0518Z" fill="#D5D0BB"/>
<path d="M34.7414 0.839111H19.0518V18.7701H34.7414V0.839111Z" fill="#36495E"/>
<path d="M104.224 0.839111H88.5345V18.7701H104.224V0.839111Z" fill="#36495E"/>
<path d="M59.3966 74.8047H43.7069V90.4943H59.3966V74.8047Z" fill="#7F6E5D"/>
<path d="M104.224 130.839C117.841 130.839 128.879 119.801 128.879 106.184C128.879 92.5673 117.841 81.5288 104.224 81.5288C90.6075 81.5288 79.569 92.5673 79.569 106.184C79.569 119.801 90.6075 130.839 104.224 130.839Z" fill="#76C9B0"/>
<path d="M117.672 103.943H106.466V92.7358C106.466 91.4985 105.464 90.4944 104.224 90.4944C102.985 90.4944 101.983 91.4985 101.983 92.7358V106.184C101.983 107.421 102.985 108.425 104.224 108.425H117.672C118.912 108.425 119.914 107.421 119.914 106.184C119.914 104.947 118.912 103.943 117.672 103.943Z" fill="white"/>
</g>
<defs>
<clipPath id="clip0">
<rect width="130" height="130" fill="white" transform="translate(0 0.839111)"/>
</clipPath>
</defs>
</svg>
