<svg id="Capa_1" enable-background="new 0 0 512 512" height="512" viewBox="0 0 512 512" width="512" xmlns="http://www.w3.org/2000/svg"><path d="m175.2 0h-19.414c-11.28 0-20.458 9.177-20.458 20.457v21.244c0 4.142 3.358 7.5 7.5 7.5s7.5-3.358 7.5-7.5v-21.244c0-3.009 2.448-5.457 5.458-5.457h19.414c3.009 0 5.457 2.448 5.457 5.457v21.148c0 4.142 3.358 7.5 7.5 7.5s7.5-3.358 7.5-7.5v-21.148c0-11.28-9.177-20.457-20.457-20.457z" fill="#2b6182"/><path d="m419.799 512h-296.692c-8.534 0-15.453-6.918-15.453-15.453v-393.529c0-8.534 6.918-15.453 15.453-15.453h296.692c8.534 0 15.453 6.918 15.453 15.453v393.529c-.001 8.535-6.919 15.453-15.453 15.453z" fill="#d4d4d4"/><path d="m388.893 468.217h-296.692c-8.534 0-15.453-6.918-15.453-15.453v-393.529c0-8.534 6.918-15.453 15.453-15.453h296.692c8.534 0 15.453 6.918 15.453 15.453v393.529c0 8.535-6.918 15.453-15.453 15.453z" fill="#f5f5f5"/><path d="m373.441 43.783v424.435h15.453c8.534 0 15.453-6.918 15.453-15.453v-393.53c0-8.534-6.918-15.453-15.453-15.453h-15.453z" fill="#e6e6e6"/><path d="m186.463 221.489h-53.569c-2.276 0-4.121-1.845-4.121-4.121v-53.569c0-2.276 1.845-4.121 4.121-4.121h53.569c2.276 0 4.121 1.845 4.121 4.121v53.569c-.001 2.276-1.845 4.121-4.121 4.121z" fill="#ff3d7a"/><path d="m186.463 321.417h-53.569c-2.276 0-4.121-1.845-4.121-4.121v-53.569c0-2.276 1.845-4.121 4.121-4.121h53.569c2.276 0 4.121 1.845 4.121 4.121v53.569c-.001 2.276-1.845 4.121-4.121 4.121z" fill="#80deea"/><path d="m186.463 421.344h-53.569c-2.276 0-4.121-1.845-4.121-4.121v-53.569c0-2.276 1.845-4.121 4.121-4.121h53.569c2.276 0 4.121 1.845 4.121 4.121v53.569c-.001 2.276-1.845 4.121-4.121 4.121z" fill="#ffca28"/><g fill="#4380a0"><path d="m228.7 179.54h123.622c4.142 0 7.5-3.358 7.5-7.5s-3.358-7.5-7.5-7.5h-123.622c-4.142 0-7.5 3.358-7.5 7.5s3.358 7.5 7.5 7.5z"/><path d="m352.322 197.506h-123.622c-4.142 0-7.5 3.358-7.5 7.5s3.358 7.5 7.5 7.5h123.622c4.142 0 7.5-3.358 7.5-7.5s-3.358-7.5-7.5-7.5z"/><path d="m352.322 264.468h-123.622c-4.142 0-7.5 3.358-7.5 7.5s3.358 7.5 7.5 7.5h123.622c4.142 0 7.5-3.358 7.5-7.5s-3.358-7.5-7.5-7.5z"/><path d="m352.322 297.434h-123.622c-4.142 0-7.5 3.358-7.5 7.5s3.358 7.5 7.5 7.5h123.622c4.142 0 7.5-3.358 7.5-7.5s-3.358-7.5-7.5-7.5z"/><path d="m352.322 364.396h-123.622c-4.142 0-7.5 3.358-7.5 7.5s3.358 7.5 7.5 7.5h123.622c4.142 0 7.5-3.358 7.5-7.5s-3.358-7.5-7.5-7.5z"/><path d="m352.322 397.361h-123.622c-4.142 0-7.5 3.358-7.5 7.5s3.358 7.5 7.5 7.5h123.622c4.142 0 7.5-3.358 7.5-7.5s-3.358-7.5-7.5-7.5z"/><path d="m204.257 152.429-36.75 31.372-7.468-8.091c-2.809-3.044-7.554-3.233-10.598-.424-3.044 2.81-3.234 7.555-.424 10.598l12.362 13.392c1.476 1.598 3.49 2.413 5.514 2.413 1.725 0 3.457-.592 4.867-1.796l42.238-36.056c3.15-2.689 3.524-7.423.834-10.574-2.689-3.15-7.424-3.524-10.575-.834z"/><path d="m204.257 253.076-36.75 31.373-7.468-8.091c-2.809-3.043-7.554-3.233-10.598-.424-3.044 2.81-3.234 7.555-.424 10.598l12.362 13.393c1.476 1.598 3.49 2.413 5.514 2.413 1.725 0 3.457-.592 4.867-1.796l42.238-36.057c3.15-2.689 3.524-7.423.834-10.574-2.689-3.151-7.424-3.524-10.575-.835z"/><path d="m204.257 354.859-36.75 31.372-7.468-8.091c-2.809-3.044-7.554-3.234-10.598-.424s-3.234 7.555-.424 10.598l12.362 13.392c1.476 1.598 3.49 2.413 5.514 2.413 1.725 0 3.457-.592 4.867-1.796l42.238-36.056c3.15-2.689 3.524-7.423.834-10.574-2.689-3.149-7.424-3.523-10.575-.834z"/><path d="m209.976 84.475h-88.966c-3.88 0-7.026-3.146-7.026-7.026v-31.262c0-8.44 6.842-15.281 15.281-15.281h72.456c8.44 0 15.281 6.842 15.281 15.281v31.262c0 3.88-3.146 7.026-7.026 7.026z"/></g><path d="m201.721 30.905h-30.905c8.44 0 15.281 6.842 15.281 15.281v31.262c0 3.88-3.146 7.026-7.026 7.026h30.905c3.88 0 7.026-3.146 7.026-7.026v-31.261c0-8.44-6.842-15.282-15.281-15.282z" fill="#3b7191"/></svg>