<svg width="250" height="250" viewBox="0 0 250 250" fill="none" xmlns="http://www.w3.org/2000/svg">
<rect width="250" height="250" rx="125" fill="url(#paint0_linear)"/>
<path d="M198.5 176.875V188.125C198.5 194.341 193.466 199.375 187.25 199.375H57.875C51.6594 199.375 46.625 194.341 46.625 188.125V176.875H52.25H100.062L102.875 188.125H142.25L145.062 176.875H192.875H198.5Z" fill="#969FAA"/>
<path d="M145.062 176.875L142.25 188.125H102.875L100.062 176.875H145.062Z" fill="#FCD770"/>
<path d="M63.5 70C57.2844 70 52.25 75.0344 52.25 81.25V176.875H100.062H145.062H192.875V70H63.5Z" fill="#CCD1D9"/>
<path d="M66.3125 81.25C64.7656 81.25 63.5 82.5156 63.5 84.0625V162.812C63.5 164.359 64.7656 165.625 66.3125 165.625H178.812C180.359 165.625 181.625 164.359 181.625 162.812V81.25H66.3125Z" fill="#69D6F4"/>
<path d="M131 131.875V154.375H74.75V120.625H114.125V131.875H131Z" fill="#FF826E"/>
<path d="M170.375 98.125V131.875H131H114.125V120.625V98.125H147.875H170.375Z" fill="#FCD770"/>
<path d="M198.5 64.375C198.5 51.9437 188.431 41.875 176 41.875C172.119 41.875 168.462 42.8594 165.284 44.6031L165.087 44.2656C159.519 36.025 150.125 30.625 139.438 30.625C122.338 30.625 108.5 44.4625 108.5 61.5625C108.5 62.5188 108.556 63.4469 108.641 64.375H108.613C108.584 64.375 108.528 64.375 108.5 64.375C103.522 64.375 99.0219 66.5406 95.9563 70C93.2563 72.9812 91.625 76.9188 91.625 81.25C91.625 90.5594 99.1906 98.125 108.5 98.125H114.125H147.875H170.375H181.625H192.875H198.5C207.809 98.125 215.375 90.5594 215.375 81.25C215.375 71.9406 207.809 64.375 198.5 64.375Z" fill="#E6E9ED"/>
<path d="M66.3125 185.312H71.9375V190.938H66.3125V185.312Z" fill="black"/>
<path d="M77.5625 185.312H83.1875V190.938H77.5625V185.312Z" fill="black"/>
<path d="M198.5 100.938C209.353 100.938 218.188 92.1034 218.188 81.25C218.188 71.3022 210.771 63.0531 201.178 61.7425C199.856 49.0188 189.067 39.0625 176 39.0625C172.56 39.0625 169.242 39.7825 166.179 41.0734C159.8 32.7625 149.982 27.8125 139.438 27.8125C120.827 27.8125 105.688 42.9522 105.688 61.5625C105.688 61.6384 105.699 61.7088 105.702 61.7847C101.469 62.3922 97.6691 64.3328 94.7497 67.1875H63.5C55.7459 67.1875 49.4375 73.4959 49.4375 81.25V174.063H43.8125V188.125C43.8125 195.879 50.1209 202.188 57.875 202.188H187.25C195.004 202.188 201.313 195.879 201.313 188.125V174.063H195.688V100.938H198.5ZM106.25 67.4238C106.829 70.7341 107.845 73.9431 109.406 76.9806L114.409 74.41C112.353 70.4106 111.313 66.0878 111.313 61.5625C111.313 46.0544 123.929 33.4375 139.438 33.4375C147.954 33.4375 155.91 37.3075 161.232 43.8522C159.33 45.2247 157.584 46.8419 156.09 48.7403L160.512 52.2166C164.275 47.4325 169.919 44.6875 176 44.6875C186.853 44.6875 195.688 53.5216 195.688 64.375V67.1875H198.5C206.254 67.1875 212.563 73.4959 212.563 81.25C212.563 89.0041 206.254 95.3125 198.5 95.3125H108.5C100.746 95.3125 94.4375 89.0041 94.4375 81.25C94.4375 74.2975 99.5225 68.5488 106.25 67.4238V67.4238ZM89.0375 84.0625C90.41 93.5856 98.6028 100.938 108.5 100.938H111.313V117.813H71.9375V157.188H133.813V134.688H173.188V100.938H178.813V162.813H66.3125V84.0625H89.0375ZM128.188 134.688V151.563H77.5625V123.438H111.313V134.688H128.188ZM116.938 129.063V100.938H167.563V129.063H116.938ZM195.688 188.125C195.688 192.777 191.902 196.563 187.25 196.563H57.875C53.2231 196.563 49.4375 192.777 49.4375 188.125V179.688H97.8688L100.678 190.938H144.447L147.256 179.688H195.688V188.125ZM103.665 179.688H141.463L140.053 185.313H105.072L103.665 179.688ZM190.063 174.063H55.0625V81.25C55.0625 76.5981 58.8481 72.8125 63.5 72.8125H90.7391C89.9038 74.5619 89.3244 76.4519 89.0375 78.4375H66.3125C63.2103 78.4375 60.6875 80.9603 60.6875 84.0625V162.813C60.6875 165.915 63.2103 168.438 66.3125 168.438H178.813C181.915 168.438 184.438 165.915 184.438 162.813V100.938H190.063V174.063Z" fill="black"/>
<path d="M145.265 88.7803L156.542 55.0193L161.878 56.8015L150.6 90.5625L145.265 88.7803Z" fill="black"/>
<path d="M166.553 89.0378L186.018 72.8125L166.553 56.5872L162.947 60.9128L177.232 72.8125L162.947 84.7122L166.553 89.0378Z" fill="black"/>
<path d="M144.053 84.7122L129.768 72.8125L144.053 60.9128L140.447 56.5872L120.982 72.8125L140.447 89.0378L144.053 84.7122Z" fill="black"/>
<path d="M122.562 106.562H161.938V112.188H122.562V106.562Z" fill="black"/>
<path d="M122.562 117.812H161.938V123.438H122.562V117.812Z" fill="black"/>
<path d="M83.1875 129.062H105.688V134.688H83.1875V129.062Z" fill="black"/>
<path d="M83.1875 140.312H122.562V145.938H83.1875V140.312Z" fill="black"/>
<path d="M71.9375 106.562H77.5625V112.188H71.9375V106.562Z" fill="black"/>
<path d="M77.5625 95.3125H83.1875V89.6875H71.9375V100.938H77.5625V95.3125Z" fill="black"/>
<defs>
<linearGradient id="paint0_linear" x1="13.5" y1="58" x2="228" y2="187" gradientUnits="userSpaceOnUse">
<stop stop-color="#7160CF" stop-opacity="0.94"/>
<stop offset="1" stop-color="#984FC0" stop-opacity="0.94"/>
</linearGradient>
</defs>
</svg>
