<svg width="80" height="80" viewBox="0 0 80 80" fill="none" xmlns="http://www.w3.org/2000/svg">
<g style="mix-blend-mode:luminosity">
<path d="M42.1629 30.7098L56.5869 0.708594C56.7956 0.275312 57.2326 0 57.7136 0H77.8637C78.2934 0 78.6926 0.220938 78.922 0.584688C79.1503 0.948438 79.1759 1.40438 78.9905 1.79141L59.8669 41.5686C59.7119 41.8903 59.4273 42.1308 59.0844 42.2291C58.972 42.2614 58.8561 42.2773 58.7401 42.2773C58.5058 42.2773 58.2739 42.2114 58.0712 42.0839L42.6208 32.308C42.0848 31.9684 41.8884 31.2811 42.1629 30.7098Z" fill="#FF4F19"/>
<path d="M68.6164 0H77.8637C78.2934 0 78.6926 0.220938 78.922 0.584688C79.1503 0.948438 79.1759 1.40438 78.9905 1.79141L59.8668 41.5686C59.7118 41.8903 59.4273 42.1308 59.0843 42.2291C58.972 42.2614 58.8561 42.2773 58.7401 42.2773C58.5058 42.2773 58.2739 42.2114 58.0712 42.0839L50.6434 37.3841L68.6164 0Z" fill="#E3001E"/>
<path d="M36.9503 30.7098L22.5265 0.708594C22.3178 0.275312 21.8808 0 21.3998 0H1.24966C0.819972 0 0.420753 0.220938 0.191378 0.584688C-0.036903 0.948438 -0.062528 1.40438 0.122941 1.79141L19.2465 41.5686C19.4015 41.8903 19.6861 42.1308 20.029 42.2291C20.1414 42.2614 20.2573 42.2773 20.3733 42.2773C20.6076 42.2773 20.8395 42.2114 21.0422 42.0839L36.4926 32.308C37.0284 31.9684 37.225 31.2811 36.9503 30.7098Z" fill="#FF4F19"/>
<path d="M10.497 0H1.24966C0.819972 0 0.420753 0.220938 0.191378 0.584688C-0.036903 0.948438 -0.062528 1.40438 0.122941 1.79141L19.2465 41.5686C19.4015 41.8903 19.6861 42.1308 20.029 42.2291C20.1414 42.2614 20.2573 42.2773 20.3733 42.2773C20.6076 42.2773 20.8395 42.2114 21.0422 42.0839L28.47 37.3841L10.497 0Z" fill="#E3001E"/>
<path d="M39.5737 80C53.3808 80 64.5737 68.8071 64.5737 55C64.5737 41.1929 53.3808 30 39.5737 30C25.7666 30 14.5737 41.1929 14.5737 55C14.5737 68.8071 25.7666 80 39.5737 80Z" fill="#FFCD00"/>
<path d="M39.5737 80C46.4773 80 52.7273 77.2017 57.2512 72.6777L21.896 37.3223C17.3718 41.8464 14.5737 48.0964 14.5737 55C14.5737 68.807 25.7665 80 39.5737 80Z" fill="#FF9100"/>
<path d="M46.1105 67.3761C45.7003 67.3761 45.2877 67.2772 44.9069 67.077L39.5736 64.2737L34.2403 67.077C33.3639 67.5366 32.3201 67.4603 31.5219 66.8798C30.7198 66.2975 30.3269 65.3295 30.4941 64.3536L31.5122 58.4161L27.197 54.2114C26.4878 53.5192 26.2375 52.5048 26.5439 51.5631C26.8503 50.6214 27.6486 49.9469 28.6289 49.8041L34.5908 48.938L37.258 43.5358C37.695 42.6483 38.5825 42.0966 39.5723 42.0959H39.5736C40.5648 42.0959 41.4522 42.6477 41.8905 43.5358L44.5566 48.938L50.5172 49.8041C51.4986 49.9469 52.297 50.6213 52.6034 51.5631C52.9098 52.505 52.6595 53.5194 51.9503 54.2108L47.6352 58.4161L48.6544 64.3536C48.8216 65.3295 48.4286 66.2975 47.6266 66.8798C47.1738 67.2089 46.6439 67.3761 46.1105 67.3761ZM28.9425 52.4206L33.7276 57.0844C34.0219 57.3719 34.1561 57.7856 34.0866 58.1909L32.9573 64.7761L33.6592 65.9706L33.0781 64.8641L38.9925 61.755C39.3562 61.5633 39.7908 61.5633 40.1545 61.755L46.0689 64.8641L47.4227 64.565L46.1909 64.7762L45.0606 58.1911C44.9911 57.7858 45.1253 57.372 45.4195 57.0845L50.2047 52.4208L50.3378 51.0414L50.1584 52.2786L43.547 51.318C43.1394 51.2587 42.7878 51.003 42.6059 50.6337L39.6494 44.6425C39.6494 44.6438 39.5748 44.6431 39.5297 44.6425C39.5114 44.6425 39.4992 44.6425 39.4992 44.6425L36.5414 50.6344C36.3595 51.003 36.008 51.2587 35.6003 51.318L28.9891 52.2786L28.0698 53.3162L28.9425 52.4206Z" fill="white"/>
<path d="M59.5773 56.25C59.2514 56.25 58.9267 56.112 58.6886 55.8875C58.4517 55.65 58.3271 55.3247 58.3271 55C58.3271 54.6747 58.4517 54.35 58.6886 54.1125C59.1512 53.6498 59.9886 53.6498 60.4512 54.1125C60.6892 54.35 60.8271 54.6747 60.8271 55C60.8271 55.3247 60.6892 55.65 60.4512 55.8875C60.2267 56.112 59.902 56.25 59.5773 56.25Z" fill="white"/>
<path d="M39.5773 36.25C39.2392 36.25 38.9267 36.112 38.6887 35.8875C38.4518 35.65 38.3273 35.3247 38.3273 35C38.3273 34.6747 38.4518 34.35 38.6887 34.1125C39.1514 33.6498 39.9887 33.6498 40.4514 34.1125C40.6894 34.35 40.8273 34.6747 40.8273 35C40.8273 35.3247 40.6894 35.65 40.4514 35.8875C40.2267 36.112 39.902 36.25 39.5773 36.25Z" fill="white"/>
<path d="M25.4269 42.1123C25.1022 42.1123 24.7762 41.9744 24.5516 41.737C24.3136 41.5123 24.1769 41.187 24.1769 40.8623C24.1769 40.5248 24.3136 40.1995 24.5516 39.9748C25.002 39.5122 25.8516 39.5122 26.3142 39.9748C26.5511 40.2123 26.6767 40.5248 26.6767 40.8623C26.6767 41.187 26.5509 41.5123 26.3142 41.737C26.0764 41.9745 25.7639 42.1123 25.4269 42.1123Z" fill="white"/>
<path d="M53.7142 70.3875C53.3895 70.3875 53.0636 70.2624 52.8267 70.025C52.602 69.7999 52.4642 69.4745 52.4642 69.1375C52.4642 68.8122 52.6022 68.4875 52.8267 68.2622C53.3015 67.7873 54.1267 67.7873 54.6015 68.2622C54.8262 68.4873 54.964 68.8122 54.964 69.1375C54.964 69.4744 54.8261 69.7869 54.6015 70.025C54.3637 70.2625 54.039 70.3875 53.7142 70.3875Z" fill="white"/>
<path d="M53.7142 42.1123C53.3895 42.1123 53.0636 41.9744 52.8267 41.7498C52.602 41.5123 52.4642 41.187 52.4642 40.8623C52.4642 40.5248 52.6022 40.1995 52.8267 39.9748C53.2893 39.5122 54.1267 39.5122 54.6015 39.9748C54.8262 40.1995 54.964 40.5248 54.964 40.8623C54.964 41.187 54.8261 41.5123 54.6015 41.7498C54.3637 41.9745 54.039 42.1123 53.7142 42.1123Z" fill="white"/>
<path d="M58.0514 48.5998C57.7267 48.5998 57.402 48.4625 57.1639 48.2245C56.9392 47.9998 56.8014 47.6745 56.8014 47.3498C56.8014 47.0123 56.9393 46.687 57.1639 46.4623C57.6387 45.9997 58.4639 45.9997 58.9387 46.4623C59.1645 46.687 59.3012 47.0123 59.3012 47.3498C59.3012 47.6745 59.1645 47.9998 58.9387 48.2245C58.702 48.4625 58.3761 48.5998 58.0514 48.5998Z" fill="white"/>
<path d="M31.9137 37.7747C31.589 37.7747 31.2644 37.6373 31.0397 37.4C30.8017 37.1748 30.6637 36.85 30.6637 36.5247C30.6637 36.2 30.8017 35.8747 31.0397 35.6372C31.5011 35.1745 32.3397 35.1745 32.8011 35.6372C33.039 35.8747 33.1636 36.1872 33.1636 36.5247C33.1636 36.85 33.039 37.1747 32.8011 37.4122C32.5644 37.6373 32.2519 37.7747 31.9137 37.7747Z" fill="white"/>
<path d="M58.0514 63.8995C57.7267 63.8995 57.402 63.775 57.1639 63.537C56.9392 63.2995 56.8014 62.987 56.8014 62.6495C56.8014 62.3249 56.9393 61.9995 57.1639 61.7749C57.6265 61.3 58.4761 61.3 58.9387 61.7749C59.1645 61.9995 59.3012 62.3249 59.3012 62.6495C59.3012 62.987 59.1645 63.2995 58.9387 63.537C58.702 63.775 58.3761 63.8995 58.0514 63.8995Z" fill="white"/>
<path d="M47.2262 37.7747C46.9015 37.7747 46.5769 37.6373 46.3387 37.4122C46.114 37.1747 45.9762 36.85 45.9762 36.5247C45.9762 36.1872 46.1142 35.8625 46.3387 35.6372C46.8014 35.1745 47.6387 35.1745 48.1136 35.6372C48.3394 35.8747 48.4761 36.1872 48.4761 36.5247C48.4761 36.85 48.3394 37.1747 48.1136 37.4122C47.8769 37.6373 47.5522 37.7747 47.2262 37.7747Z" fill="white"/>
<path d="M59.1769 52.2625C58.8387 52.2625 58.514 52.1245 58.2894 51.9C58.0514 51.662 57.9268 51.3372 57.9268 51.0125C57.9268 50.6872 58.0514 50.3625 58.2894 50.1244C58.752 49.6623 59.5894 49.6623 60.052 50.1244C60.2889 50.3623 60.4267 50.6872 60.4267 51.0125C60.4267 51.3372 60.2887 51.6619 60.052 51.9C59.8264 52.1247 59.5015 52.2625 59.1769 52.2625Z" fill="white"/>
<path d="M35.5892 36.6498C35.2511 36.6498 34.9386 36.5125 34.7017 36.2873C34.4637 36.0498 34.3392 35.7373 34.3392 35.3998C34.3392 35.0752 34.4637 34.7498 34.7017 34.5123C35.1644 34.0497 36.0017 34.0497 36.4765 34.5123C36.7012 34.7498 36.839 35.0752 36.839 35.3998C36.839 35.7245 36.7011 36.0498 36.4765 36.2873C36.2387 36.5125 35.914 36.6498 35.5892 36.6498Z" fill="white"/>
<path d="M56.2522 67.287C55.9262 67.287 55.6015 67.1497 55.3647 66.9252C55.1389 66.6872 55.0022 66.3747 55.0022 66.037C55.0022 65.7123 55.1389 65.3877 55.3647 65.1495C55.8273 64.6875 56.6769 64.6875 57.1395 65.1495C57.3642 65.3875 57.502 65.7123 57.502 66.037C57.502 66.3745 57.364 66.687 57.1395 66.9252C56.9015 67.1497 56.5769 67.287 56.2522 67.287Z" fill="white"/>
<path d="M50.6137 39.5745C50.289 39.5745 49.9643 39.4372 49.7262 39.212C49.5015 38.9745 49.3637 38.6498 49.3637 38.3245C49.3637 37.987 49.5017 37.6745 49.7262 37.437C50.1889 36.9744 51.0397 36.9744 51.4889 37.437C51.7268 37.6622 51.8636 37.987 51.8636 38.3245C51.8636 38.6498 51.7268 38.9745 51.4889 39.212C51.2643 39.4372 50.9397 39.5745 50.6137 39.5745Z" fill="white"/>
<path d="M56.152 45.0622C55.8273 45.0622 55.5014 44.937 55.2645 44.6997C55.0387 44.4745 54.902 44.1497 54.902 43.8122C54.902 43.4875 55.0387 43.1622 55.2645 42.9247C55.7394 42.462 56.5645 42.462 57.0394 42.9247C57.2762 43.1622 57.4019 43.4875 57.4019 43.8122C57.4019 44.1497 57.2761 44.4744 57.0394 44.6997C56.8014 44.9372 56.4889 45.0622 56.152 45.0622Z" fill="white"/>
<path d="M28.3895 39.6625C28.0514 39.6625 27.7389 39.5373 27.502 39.3C27.2762 39.0748 27.1395 38.75 27.1395 38.4247C27.1395 38.0872 27.2762 37.7625 27.502 37.5372C27.9647 37.0745 28.8142 37.0745 29.2769 37.5372C29.5015 37.7623 29.6394 38.0872 29.6394 38.4247C29.6394 38.75 29.5014 39.0747 29.2769 39.3C29.039 39.5373 28.7142 39.6625 28.3895 39.6625Z" fill="white"/>
<path d="M59.2014 60.0622C58.8767 60.0622 58.552 59.937 58.3139 59.6997C58.0892 59.4622 57.9514 59.1497 57.9514 58.8122C57.9514 58.4875 58.0894 58.1622 58.3139 57.9247C58.7887 57.462 59.6139 57.462 60.0887 57.9247C60.3267 58.1622 60.4512 58.4875 60.4512 58.8122C60.4512 59.1497 60.3267 59.4622 60.0887 59.6997C59.852 59.9372 59.5395 60.0622 59.2014 60.0622Z" fill="white"/>
<path d="M43.3895 36.6125C43.0514 36.6125 42.7389 36.4873 42.502 36.25C42.2762 36.0125 42.1395 35.7 42.1395 35.3625C42.1395 35.0372 42.2762 34.7125 42.502 34.4872C42.9647 34.0123 43.802 34.0123 44.2768 34.4872C44.5015 34.7123 44.6393 35.0372 44.6393 35.3625C44.6393 35.7 44.5014 36.0247 44.2768 36.25C44.039 36.4873 43.7142 36.6125 43.3895 36.6125Z" fill="white"/>
<path d="M46.1104 67.3761C46.6439 67.3761 47.1737 67.2089 47.6265 66.8798C48.4286 66.2975 48.8215 65.3295 48.6543 64.3536L48.5978 64.0242L45.5364 60.9628L46.1909 64.7759L47.4226 64.5647L46.0689 64.8637L40.1545 61.7547C39.7907 61.563 39.3562 61.563 38.9925 61.7547L33.0781 64.8637L33.6592 65.9703L32.9573 64.7758L34.0865 58.1906C34.1561 57.7853 34.0218 57.3716 33.7276 57.0841L28.9425 52.4203L28.0696 53.3156L28.9889 52.278L35.6001 51.3173C35.6796 51.3058 35.7545 51.2809 35.8289 51.255L33.6484 49.0744L28.6287 49.8036C27.6486 49.9464 26.8501 50.6208 26.5437 51.5627C26.2373 52.5045 26.4876 53.5189 27.1968 54.2109L31.512 58.4156L30.4939 64.3531C30.3267 65.3291 30.7196 66.297 31.5217 66.8794C32.32 67.4598 33.3637 67.5361 34.2401 67.0766L39.5734 64.2733L44.9067 67.0766C45.2878 67.2772 45.7003 67.3761 46.1104 67.3761Z" fill="#FFCD00"/>
<path d="M19.5773 56.25C19.2514 56.25 18.9267 56.112 18.6886 55.8875C18.4639 55.65 18.3273 55.3247 18.3273 55C18.3273 54.6747 18.464 54.35 18.6886 54.1125C19.1512 53.6498 19.9886 53.6498 20.4512 54.1125C20.6892 54.35 20.8272 54.6747 20.8272 55C20.8272 55.3247 20.6892 55.65 20.4512 55.8875C20.2267 56.112 19.902 56.25 19.5773 56.25Z" fill="#FFCD00"/>
<path d="M39.5773 76.25C39.2514 76.25 38.9267 76.112 38.6887 75.8875C38.4518 75.65 38.3273 75.3247 38.3273 75C38.3273 74.6747 38.4518 74.35 38.6887 74.1125C39.1648 73.6498 39.9887 73.6498 40.4514 74.1125C40.6894 74.35 40.8273 74.6747 40.8273 75C40.8273 75.3247 40.6894 75.65 40.4514 75.8875C40.2267 76.112 39.902 76.25 39.5773 76.25Z" fill="#FFCD00"/>
<path d="M25.4269 70.3875C25.1022 70.3875 24.7762 70.2624 24.5516 70.025C24.3136 69.787 24.1769 69.4622 24.1769 69.1375C24.1769 68.8122 24.3136 68.4875 24.5516 68.2622C25.0142 67.7995 25.8516 67.7873 26.3142 68.2622C26.5511 68.4873 26.6767 68.8122 26.6767 69.1375C26.6767 69.4622 26.5509 69.7869 26.3142 70.025C26.0898 70.2625 25.7639 70.3875 25.4269 70.3875Z" fill="#FFCD00"/>
<path d="M21.102 63.8995C20.7639 63.8995 20.4392 63.775 20.2145 63.537C19.9766 63.2995 19.852 62.9749 19.852 62.6495C19.852 62.3249 19.9766 61.9995 20.2145 61.7749C20.6772 61.3 21.5145 61.3 21.9772 61.7749C22.2141 61.9995 22.3519 62.3249 22.3519 62.6495C22.3519 62.9749 22.2139 63.2995 21.9772 63.537C21.7514 63.775 21.4267 63.8995 21.102 63.8995Z" fill="#FFCD00"/>
<path d="M47.2262 74.7247C46.9015 74.7247 46.5769 74.5995 46.3387 74.3622C46.114 74.1375 45.9762 73.8122 45.9762 73.4747C45.9762 73.15 46.1142 72.8247 46.3387 72.5872C46.8136 72.1245 47.6387 72.1245 48.1136 72.5872C48.3394 72.8247 48.4761 73.15 48.4761 73.4747C48.4761 73.8 48.3394 74.1247 48.1136 74.3622C47.8769 74.5995 47.5522 74.7247 47.2262 74.7247Z" fill="#FFCD00"/>
<path d="M21.102 48.5998C20.7639 48.5998 20.4392 48.4625 20.2145 48.2245C19.9766 47.9998 19.852 47.6745 19.852 47.3498C19.852 47.0123 19.9766 46.687 20.2145 46.4623C20.6772 45.9997 21.5145 45.9997 21.9772 46.4623C22.2141 46.6998 22.3519 47.0123 22.3519 47.3498C22.3519 47.6745 22.2139 47.9998 21.9772 48.2245C21.7514 48.4625 21.4267 48.5998 21.102 48.5998Z" fill="#FFCD00"/>
<path d="M31.9137 74.7247C31.589 74.7247 31.2644 74.5995 31.0397 74.3622C30.8017 74.1247 30.6637 73.8122 30.6637 73.4747C30.6637 73.15 30.8017 72.8247 31.0397 72.5994C31.5011 72.1245 32.3397 72.1245 32.8011 72.5994C33.039 72.8245 33.1636 73.1498 33.1636 73.4747C33.1636 73.8122 33.039 74.1247 32.8011 74.3622C32.5765 74.5995 32.2519 74.7247 31.9137 74.7247Z" fill="#FFCD00"/>
<path d="M19.9765 60.2373C19.6519 60.2373 19.3272 60.0994 19.089 59.8748C18.8644 59.6373 18.7265 59.312 18.7265 58.9873C18.7265 58.662 18.8645 58.3373 19.089 58.0998C19.5639 57.6372 20.389 57.6372 20.8639 58.0998C21.0897 58.3373 21.2264 58.662 21.2264 58.9873C21.2264 59.312 21.0897 59.6373 20.8639 59.8748C20.6272 60.0995 20.3012 60.2373 19.9765 60.2373Z" fill="#FFCD00"/>
<path d="M43.564 75.8495C43.2272 75.8495 42.9012 75.7122 42.6765 75.487C42.4386 75.2495 42.314 74.9248 42.314 74.5995C42.314 74.2748 42.4386 73.9495 42.6765 73.712C43.1392 73.2494 43.9765 73.2494 44.4392 73.712C44.6761 73.9495 44.8139 74.2748 44.8139 74.5995C44.8139 74.9248 44.6759 75.2495 44.4392 75.487C44.2148 75.7122 43.8889 75.8495 43.564 75.8495Z" fill="#FFCD00"/>
<path d="M22.9012 45.2123C22.5644 45.2123 22.2397 45.075 22.0137 44.8498C21.7769 44.6123 21.6512 44.287 21.6512 43.9623C21.6512 43.6248 21.777 43.3123 22.0137 43.0748C22.4764 42.6122 23.3137 42.6122 23.7764 43.0748C24.0144 43.3123 24.1511 43.637 24.1511 43.9623C24.1511 44.287 24.0144 44.6123 23.7764 44.8498C23.5519 45.075 23.2272 45.2123 22.9012 45.2123Z" fill="#FFCD00"/>
<path d="M28.5397 72.9249C28.2015 72.9249 27.8769 72.7875 27.6522 72.5624C27.4142 72.3249 27.2897 72.0124 27.2897 71.6749C27.2897 71.3495 27.4142 71.0249 27.6522 70.7995C28.1136 70.3247 28.9522 70.3247 29.4136 70.7995C29.6515 71.0247 29.7895 71.3495 29.7895 71.6749C29.7895 72.0124 29.6515 72.3249 29.4136 72.5624C29.1892 72.7875 28.8644 72.9249 28.5397 72.9249Z" fill="#FFCD00"/>
<path d="M22.9892 67.4372C22.6645 67.4372 22.3398 67.2998 22.1017 67.0625C21.877 66.8373 21.7392 66.5125 21.7392 66.1872C21.7392 65.8497 21.8771 65.5372 22.1017 65.2997C22.5765 64.837 23.4139 64.837 23.8765 65.2997C24.1145 65.5372 24.239 65.8497 24.239 66.1872C24.239 66.5125 24.1145 66.8372 23.8765 67.0625C23.6398 67.2998 23.3273 67.4372 22.9892 67.4372Z" fill="#FFCD00"/>
<path d="M50.7639 72.8247C50.427 72.8247 50.1023 72.6995 49.8764 72.4622C49.6395 72.2375 49.5139 71.9122 49.5139 71.5747C49.5139 71.25 49.6397 70.9247 49.8764 70.7C50.3268 70.2373 51.1764 70.2245 51.639 70.7C51.877 70.9247 52.0137 71.25 52.0137 71.5747C52.0137 71.9122 51.877 72.2375 51.639 72.4622C51.4145 72.6995 51.0898 72.8247 50.7639 72.8247Z" fill="#FFCD00"/>
<path d="M19.9386 52.4372C19.6139 52.4372 19.2892 52.2998 19.0511 52.0625C18.8264 51.8373 18.6886 51.5125 18.6886 51.1872C18.6886 50.8497 18.8265 50.5372 19.0511 50.2997C19.5137 49.837 20.3645 49.837 20.8272 50.2997C21.064 50.5372 21.1886 50.8497 21.1886 51.1872C21.1886 51.5125 21.064 51.8372 20.8272 52.0625C20.5892 52.2998 20.2645 52.4372 19.9386 52.4372Z" fill="#FFCD00"/>
<path d="M35.7517 75.8875C35.427 75.8875 35.1023 75.7495 34.8764 75.5122C34.6395 75.2875 34.5139 74.9622 34.5139 74.6375C34.5139 74.3 34.6397 73.9747 34.8764 73.75C35.339 73.2873 36.1764 73.2873 36.639 73.75C36.877 73.9747 37.0015 74.3 37.0015 74.6375C37.0015 74.9622 36.877 75.2875 36.639 75.5122C36.4145 75.7495 36.0898 75.8875 35.7517 75.8875Z" fill="#FFCD00"/>
<path d="M24.5505 39.9767C24.3134 40.2014 24.1769 40.5256 24.1769 40.8623C24.1769 41.187 24.3136 41.5123 24.5516 41.737C24.7762 41.9745 25.102 42.1123 25.4269 42.1123C25.7628 42.1123 26.0744 41.9748 26.3122 41.7384L24.5505 39.9767Z" fill="#FFCD00"/>
<path d="M53.7142 70.3875C54.0381 70.3875 54.3618 70.2627 54.5998 70.0261L52.8323 68.2586C52.8307 68.2602 52.8284 68.2606 52.8267 68.2622C52.602 68.4873 52.4642 68.8122 52.4642 69.1375C52.4642 69.4744 52.6022 69.7997 52.8267 70.025C53.0636 70.2625 53.3895 70.3875 53.7142 70.3875Z" fill="#FFCD00"/>
</g>
</svg>
